<?xml version="1.0" encoding="UTF-8"?>
<svg id="_Слой_2" data-name="Слой_2" xmlns="http://www.w3.org/2000/svg" viewBox="0 0 268.7 172.37">
  <defs>
    <style>
      .cls-1 {
        fill: #1d1d1b;
        font-family: GoodTimesRUSbyCop, 'Good Times RUS by Cop';
        font-size: 28px;
      }
    </style>
  </defs>
  <g id="_Слой_1-2" data-name="Слой_1">
    <path d="M268.7,112.79h-25.12c-11.77-16.07-34.74-47.43-34.74-47.43-9.77,9.7-21.1,20.99-31.73,31.32-21.94,24.12-57.66,28.34-82.39,6.3-6.94-6.19-12.2-14.04-15.7-22.66l-21.13-51.98L23.39,112.45H0L47.36,1.32h21.95c3.91,8.96,7.86,18.02,12.23,28.05C94.4,8.74,112.56-.62,135.86.03c15.28.43,28.46,5.78,39.56,17.55-4.4,5.08-8.69,10.02-13.28,15.31-2.93-2.07-5.54-4.03-8.26-5.83-18.6-12.35-42.55-5.75-51.36,14.11-9.17,20.67.55,44.96,21,51.01,15.9,4.7,29.1-1.42,40.17-12.66L240.1,1.9h28.6c-15.44,16.14-30.02,31.36-44.85,46.86l44.85,64.04Z"/>
    <text class="cls-1" transform="translate(28.42 166.4) scale(1.1 1)"><tspan x="0" y="0">ЛСК-ГРУПП</tspan></text>
  </g>
</svg>