<svg width="34" height="30" viewBox="0 0 34 30" fill="none" xmlns="http://www.w3.org/2000/svg">
<g clip-path="url(#clip0_508_1060)">
<path d="M32.8422 13.6029L17.4526 0.978369C17.4257 0.953688 17.3988 0.935177 17.3651 0.916665C17.0288 0.620489 16.4907 0.608148 16.1342 0.898154L0.744597 13.5227C0.367928 13.8312 0.341023 14.3557 0.670609 14.7012C0.852217 14.8863 1.10109 14.9789 1.34996 14.9789C1.5652 14.9789 1.78044 14.911 1.95532 14.7691L4.72653 12.4922V12.9365V19.5264V27.2147C4.72653 28.3686 5.74892 29.3126 7.01345 29.3126C7.03363 29.3126 7.04708 29.3126 7.06726 29.3126C7.08744 29.3126 7.10089 29.3126 7.12107 29.3126H11.8698C13.0536 29.3126 14.0155 28.4303 14.0155 27.3443V19.8596C14.0155 19.693 14.1634 19.5573 14.3451 19.5573H19.2485C19.4301 19.5573 19.5781 19.693 19.5781 19.8596V27.3443C19.5781 28.4303 20.5399 29.3126 21.7237 29.3126H26.5801C27.8581 29.3126 28.867 28.1588 28.867 26.6841V19.8226V17.7247V12.5725L31.6382 14.8493C31.8131 14.9912 32.0283 15.0591 32.2436 15.0591C32.4924 15.0591 32.7413 14.9666 32.9229 14.7814C33.2458 14.4359 33.2122 13.9114 32.8422 13.6029ZM27.0442 17.7185V19.8165V26.6717C27.0442 27.2702 26.7213 27.6343 26.5734 27.6343H21.717C21.5354 27.6343 21.3874 27.4985 21.3874 27.3319V19.8596C21.3874 18.7737 20.4256 17.8913 19.2418 17.8913H14.3383C13.1545 17.8913 12.1927 18.7737 12.1927 19.8596V27.3443C12.1927 27.5109 12.0447 27.6466 11.8631 27.6466H7.11435C7.09417 27.6466 7.08072 27.6466 7.06054 27.6466C7.04036 27.6466 7.02691 27.6466 7.00673 27.6466C6.75113 27.6466 6.53589 27.4553 6.53589 27.2147V19.5203V12.9303V10.999L16.7463 2.63202L27.0442 11.0792V17.7185Z" fill="black"/>
</g>
<defs>
<clipPath id="clip0_508_1060">
<rect width="32.7027" height="30" fill="white" transform="translate(0.441406)"/>
</clipPath>
</defs>
</svg>
