<svg width="184" height="115" viewBox="0 0 184 115" fill="none" xmlns="http://www.w3.org/2000/svg">
<path d="M184 77.2373H166.798C158.739 66.2329 143.009 44.7582 143.009 44.7582C136.319 51.4006 128.56 59.1317 121.281 66.2055C106.257 82.7224 81.7968 85.6121 64.8622 70.5196C60.1099 66.2808 56.5079 60.9053 54.1112 55.0025L39.6418 19.4077L16.017 77.0044H0L32.4311 0.905012H47.462C50.1395 7.04063 52.8444 13.2447 55.8368 20.1131C64.6431 5.98607 77.0787 -0.423458 93.034 0.0216478C103.497 0.316103 112.523 3.97967 120.124 12.0395C117.111 15.5182 114.173 18.901 111.03 22.5235C109.024 21.106 107.236 19.7638 105.374 18.5312C92.6368 10.0742 76.2364 14.5937 70.2035 28.1934C63.9241 42.3478 70.5801 58.9811 84.5838 63.124C95.4718 66.3424 104.511 62.1516 112.091 54.4547L164.415 1.30218H184C173.427 12.3545 163.443 22.7768 153.288 33.3909L184 77.2441V77.2373Z" fill="white"/>
<path d="M60.185 112.013H58.2845L54.471 105.72L50.6827 112.013H48.7823L53.5271 104.235C53.8627 103.681 54.1648 103.404 54.4333 103.404C54.7018 103.404 55.008 103.681 55.352 104.235L60.185 112.013ZM70.0632 112H65.2051C63.9549 112 62.9187 111.585 62.0964 110.754C61.2825 109.923 60.8756 108.875 60.8756 107.608C60.8756 106.349 61.2783 105.334 62.0838 104.562C62.8977 103.79 63.9381 103.404 65.2051 103.404H70.0632V104.902H65.2051C64.3828 104.902 63.7032 105.166 63.1662 105.695C62.6376 106.223 62.3733 106.903 62.3733 107.733C62.3733 108.556 62.6376 109.223 63.1662 109.735C63.7032 110.246 64.3828 110.502 65.2051 110.502H70.0632V112ZM80.1965 112H77.994L73.7275 108.438C73.4338 108.187 73.287 107.956 73.287 107.746C73.287 107.545 73.4338 107.318 73.7275 107.066L77.994 103.404H80.1965L75.0741 107.784L80.1965 112ZM73.0101 112H71.5124V103.404H73.0101V112ZM85.5404 108.4H80.8711V106.915H85.5404V108.4ZM94.8907 104.902H88.9629V112H87.4652V103.404H94.8907V104.902ZM105.668 106.5C105.668 107.44 105.324 108.199 104.636 108.778C103.998 109.315 103.197 109.584 102.232 109.584H98.4438V108.098H102.471C102.966 108.098 103.382 107.952 103.717 107.658C104.053 107.364 104.221 106.974 104.221 106.487C104.221 106.001 104.053 105.615 103.717 105.33C103.382 105.044 102.966 104.902 102.471 104.902H97.5628V112H96.0651V103.404H102.232C103.197 103.404 103.998 103.677 104.636 104.222C105.324 104.793 105.668 105.552 105.668 106.5ZM114.414 108.136C114.414 109.521 114.003 110.532 113.181 111.169C112.451 111.723 111.364 112 109.921 112H106.787V110.502H109.921C110.895 110.502 111.612 110.355 112.073 110.062C112.636 109.693 112.917 109.051 112.917 108.136V103.404H114.414V108.136ZM112.023 108.854H110.374C109.032 108.879 108.117 108.753 107.631 108.476C106.708 108.073 106.288 107.125 106.372 105.632V103.404H107.87V105.632C107.777 106.857 108.612 107.431 110.374 107.356H112.023V108.854ZM124.371 112H122.873V104.902H118.027V103.404H124.371V112ZM117.146 112H115.649V103.404H117.146V112ZM134.633 112H133.136V104.902H128.29V103.404H134.633V112ZM127.409 112H125.911V103.404H127.409V112Z" fill="white"/>
</svg>
