<svg width="184" height="80" viewBox="0 0 184 80" fill="none" xmlns="http://www.w3.org/2000/svg">
<g clip-path="url(#clip0_541_555)">
<path d="M184 76.8848H166.798C158.739 65.9305 143.009 44.5535 143.009 44.5535C136.319 51.1656 128.56 58.8616 121.281 65.9032C106.257 82.3449 81.7968 85.2215 64.8622 70.1977C60.1099 65.9782 56.5079 60.6271 54.1112 54.7512L39.6418 19.3183L16.017 76.653H0L32.4311 0.899796H47.462C50.1395 7.0075 52.8444 13.1834 55.8368 20.0205C64.6431 5.95774 77.0787 -0.42263 93.034 0.0204507C103.497 0.313566 112.523 3.96046 120.124 11.9836C117.111 15.4465 114.173 18.8139 111.03 22.4199C109.024 21.0089 107.236 19.6728 105.374 18.4458C92.6368 10.0273 76.2364 14.5262 70.2035 28.0641C63.9241 42.1541 70.5801 58.7117 84.5838 62.8357C95.4718 66.0395 104.511 61.8677 112.091 54.2059L164.415 1.29516H184C173.427 12.2972 163.443 22.6721 153.288 33.2379L184 76.8916V76.8848Z" fill="white"/>
</g>
<defs>
<clipPath id="clip0_541_555">
<rect width="184" height="80" fill="white"/>
</clipPath>
</defs>
</svg>
